<?xml version="1.0" standalone="no"?>
<!DOCTYPE svg PUBLIC "-//W3C//DTD SVG 20010904//EN"
 "http://www.w3.org/TR/2001/REC-SVG-20010904/DTD/svg10.dtd">
<svg version="1.0" xmlns="http://www.w3.org/2000/svg"
 width="512.000000pt" height="512.000000pt" viewBox="0 0 512.000000 512.000000"
 preserveAspectRatio="xMidYMid meet">

<g transform="translate(0.000000,512.000000) scale(0.100000,-0.100000)"
fill="#000000" stroke="none">
<path d="M2362 5110 c-679 -53 -1319 -382 -1759 -905 -800 -952 -798 -2338 5
-3295 353 -421 854 -725 1392 -844 201 -44 339 -59 570 -60 227 -1 319 8 522
50 977 204 1768 994 1971 1969 44 209 52 297 51 530 -2 245 -21 407 -73 620
-250 1017 -1107 1784 -2146 1919 -146 19 -393 27 -533 16z m380 -262 c113 -54
188 -138 229 -257 25 -70 26 -195 4 -269 -9 -30 -15 -55 -13 -56 2 -2 28 -16
58 -32 85 -45 199 -165 243 -254 57 -116 67 -171 67 -358 l0 -163 -57 44
c-299 228 -702 298 -1071 186 -99 -30 -257 -111 -339 -173 l-73 -55 0 159 c0
189 9 237 62 350 32 68 56 100 117 160 42 41 101 88 131 104 30 16 57 30 59
32 1 1 -4 24 -12 51 -26 80 -29 143 -13 221 19 91 54 157 118 221 95 94 195
132 330 127 75 -3 98 -8 160 -38z m14 -1463 c162 -42 280 -109 400 -229 172
-172 248 -354 248 -596 0 -242 -76 -424 -248 -596 -122 -121 -234 -186 -403
-230 -98 -26 -291 -23 -398 5 -306 81 -535 310 -616 616 -16 61 -21 109 -21
205 0 96 5 144 21 205 90 340 367 587 712 635 82 11 229 4 305 -15z m-1179
-162 c-276 -413 -274 -923 6 -1335 l66 -98 -132 0 c-167 1 -265 18 -362 65
-97 47 -202 143 -258 239 -22 39 -41 72 -41 73 -1 1 -28 -8 -61 -19 -92 -31
-217 -23 -308 19 -281 132 -343 488 -123 705 118 116 313 156 461 94 l30 -13
39 70 c54 98 147 187 249 237 110 54 182 68 359 69 l146 1 -71 -107z m2267 87
c165 -42 315 -156 386 -292 l34 -65 60 19 c47 15 82 19 152 16 81 -3 100 -8
166 -41 176 -86 273 -280 234 -465 -30 -144 -115 -254 -245 -315 -87 -41 -217
-49 -306 -19 -33 11 -60 20 -61 19 -1 -1 -16 -31 -35 -67 -46 -86 -146 -186
-237 -233 -112 -59 -199 -77 -374 -77 -81 0 -148 2 -148 5 0 2 22 34 49 70
255 341 297 820 106 1212 -30 61 -77 141 -105 178 -27 36 -50 68 -50 71 0 2
67 4 148 4 115 0 166 -4 226 -20z m-2039 -1510 c3 -5 1 -10 -4 -10 -6 0 -11 5
-11 10 0 6 2 10 4 10 3 0 8 -4 11 -10z m230 -300 c190 -93 349 -126 572 -117
259 10 462 81 666 234 l57 43 0 -163 c0 -185 -10 -241 -66 -356 -44 -90 -151
-202 -239 -251 -33 -18 -62 -35 -64 -37 -2 -1 3 -26 12 -54 24 -72 22 -200 -2
-272 -68 -197 -267 -320 -468 -289 -172 27 -310 144 -357 302 -22 72 -20 201
3 267 l18 52 -31 12 c-50 20 -151 95 -196 146 -112 127 -150 251 -150 484 l0
158 73 -55 c39 -30 117 -77 172 -104z"/>
<path d="M2749 2967 c-56 -16 -94 -43 -151 -106 l-45 -49 -17 28 c-21 37 -92
95 -139 115 -43 18 -130 20 -178 3 -70 -23 -116 -65 -151 -135 -28 -58 -33
-77 -32 -143 0 -137 57 -247 199 -386 78 -76 267 -214 314 -229 41 -13 233
118 354 240 172 173 227 352 157 512 -51 119 -187 184 -311 150z"/>
</g>
</svg>
